<svg xmlns="http://www.w3.org/2000/svg" style="display:none">
  <symbol id="search" viewBox="0 0 16 16" fill="none" stroke="currentColor" stroke-width="1.5" stroke-linecap="round" stroke-linejoin="round">
    <circle cx="7" cy="7" r="5"/><path d="m14 14-3.5-3.5"/>
  </symbol>
  <symbol id="calendar" viewBox="0 0 16 16" fill="none" stroke="currentColor" stroke-width="1.5" stroke-linecap="round" stroke-linejoin="round">
    <rect x="2" y="3" width="12" height="11" rx="1.5"/><path d="M2 6h12M5 2v3M11 2v3"/>
  </symbol>
  <symbol id="plus" viewBox="0 0 16 16" fill="none" stroke="currentColor" stroke-width="1.5" stroke-linecap="round">
    <path d="M8 3v10M3 8h10"/>
  </symbol>
  <symbol id="x" viewBox="0 0 16 16" fill="none" stroke="currentColor" stroke-width="1.5" stroke-linecap="round">
    <path d="m4 4 8 8M12 4l-8 8"/>
  </symbol>
  <symbol id="chevron" viewBox="0 0 16 16" fill="none" stroke="currentColor" stroke-width="1.5" stroke-linecap="round" stroke-linejoin="round">
    <path d="m4 6 4 4 4-4"/>
  </symbol>
  <symbol id="arrow-left" viewBox="0 0 16 16" fill="none" stroke="currentColor" stroke-width="1.5" stroke-linecap="round" stroke-linejoin="round">
    <path d="M10 4 6 8l4 4"/>
  </symbol>
  <symbol id="arrow-right" viewBox="0 0 16 16" fill="none" stroke="currentColor" stroke-width="1.5" stroke-linecap="round" stroke-linejoin="round">
    <path d="m6 4 4 4-4 4"/>
  </symbol>
  <symbol id="filter" viewBox="0 0 16 16" fill="none" stroke="currentColor" stroke-width="1.5" stroke-linecap="round" stroke-linejoin="round">
    <path d="M2 3h12l-4.5 6v5l-3-2V9z"/>
  </symbol>
  <symbol id="download" viewBox="0 0 16 16" fill="none" stroke="currentColor" stroke-width="1.5" stroke-linecap="round" stroke-linejoin="round">
    <path d="M8 2v9M4 7l4 4 4-4M3 13h10"/>
  </symbol>
  <symbol id="columns" viewBox="0 0 16 16" fill="none" stroke="currentColor" stroke-width="1.5" stroke-linecap="round" stroke-linejoin="round">
    <rect x="2" y="3" width="12" height="10" rx="1.5"/><path d="M6 3v10M10 3v10"/>
  </symbol>
  <symbol id="keyboard" viewBox="0 0 16 16" fill="none" stroke="currentColor" stroke-width="1.5" stroke-linecap="round" stroke-linejoin="round">
    <rect x="1.5" y="4" width="13" height="8" rx="1.5"/><path d="M4 7h.01M7 7h.01M10 7h.01M13 7h.01M4 10h8"/>
  </symbol>
  <symbol id="bookmark" viewBox="0 0 16 16" fill="none" stroke="currentColor" stroke-width="1.5" stroke-linecap="round" stroke-linejoin="round">
    <path d="M4 2.5h8v11L8 11l-4 2.5z"/>
  </symbol>
  <symbol id="eye" viewBox="0 0 16 16" fill="none" stroke="currentColor" stroke-width="1.5" stroke-linecap="round" stroke-linejoin="round">
    <path d="M1.5 8S4 3.5 8 3.5 14.5 8 14.5 8 12 12.5 8 12.5 1.5 8 1.5 8Z"/><circle cx="8" cy="8" r="2"/>
  </symbol>
  <symbol id="copy" viewBox="0 0 16 16" fill="none" stroke="currentColor" stroke-width="1.5" stroke-linecap="round" stroke-linejoin="round">
    <rect x="5" y="5" width="9" height="9" rx="1.5"/><path d="M11 5V3.5a1 1 0 0 0-1-1H3.5a1 1 0 0 0-1 1V10a1 1 0 0 0 1 1H5"/>
  </symbol>
  <symbol id="slider" viewBox="0 0 16 16" fill="none" stroke="currentColor" stroke-width="1.5" stroke-linecap="round">
    <path d="M2 5h9M14 5h-1M2 11h3M14 11h-7"/><circle cx="12" cy="5" r="1.5"/><circle cx="6" cy="11" r="1.5"/>
  </symbol>
</svg>
